<?xml version="1.0" encoding="UTF-8" standalone="no"?>
<!DOCTYPE svg PUBLIC "-//W3C//DTD SVG 1.1//EN"
 "http://www.w3.org/Graphics/SVG/1.1/DTD/svg11.dtd">
<!-- Generated by graphviz version 2.40.1 (20161225.0304)
 -->
<!-- Title: screening_flowchart Pages: 1 -->
<svg width="526pt" height="1030pt"
 viewBox="0.00 0.00 526.00 1030.40" xmlns="http://www.w3.org/2000/svg" xmlns:xlink="http://www.w3.org/1999/xlink">
<g id="graph0" class="graph" transform="scale(1 1) rotate(0) translate(4 1026.4)">
<title>screening_flowchart</title>
<polygon fill="#ffffff" stroke="transparent" points="-4,4 -4,-1026.4 522,-1026.4 522,4 -4,4"/>
<!-- src_1 -->
<g id="node1" class="node">
<title>src_1</title>
<path fill="#f5f5f5" stroke="#000000" d="M204,-1022.6009C204,-1022.6009 12,-1022.6009 12,-1022.6009 6,-1022.6009 0,-1016.6009 0,-1010.6009 0,-1010.6009 0,-945.7991 0,-945.7991 0,-939.7991 6,-933.7991 12,-933.7991 12,-933.7991 204,-933.7991 204,-933.7991 210,-933.7991 216,-939.7991 216,-945.7991 216,-945.7991 216,-1010.6009 216,-1010.6009 216,-1016.6009 210,-1022.6009 204,-1022.6009"/>
<text text-anchor="middle" x="108" y="-998.8" font-family="Helvetica,sans-Serif" font-size="14.00" fill="#000000">Records identified from</text>
<text text-anchor="middle" x="108" y="-982" font-family="Helvetica,sans-Serif" font-size="14.00" fill="#000000">bibliographic database searches</text>
<text text-anchor="middle" x="108" y="-949.2" font-family="Helvetica,sans-Serif" font-size="14.00" fill="#000000">(RO = 402, RCG = 474)</text>
</g>
<!-- node_initial -->
<g id="node3" class="node">
<title>node_initial</title>
<path fill="#ffffff" stroke="#000000" d="M204,-862.2009C204,-862.2009 12,-862.2009 12,-862.2009 6,-862.2009 0,-856.2009 0,-850.2009 0,-850.2009 0,-785.3991 0,-785.3991 0,-779.3991 6,-773.3991 12,-773.3991 12,-773.3991 204,-773.3991 204,-773.3991 210,-773.3991 216,-779.3991 216,-785.3991 216,-785.3991 216,-850.2009 216,-850.2009 216,-856.2009 210,-862.2009 204,-862.2009"/>
<text text-anchor="middle" x="108" y="-838.4" font-family="Helvetica,sans-Serif" font-size="14.00" fill="#000000">Records after</text>
<text text-anchor="middle" x="108" y="-821.6" font-family="Helvetica,sans-Serif" font-size="14.00" fill="#000000">duplicates removed</text>
<text text-anchor="middle" x="108" y="-788.8" font-family="Helvetica,sans-Serif" font-size="14.00" fill="#000000">(RO = 369, RCG = 459)</text>
</g>
<!-- src_1&#45;&gt;node_initial -->
<g id="edge1" class="edge">
<title>src_1&#45;&gt;node_initial</title>
<path fill="none" stroke="#000000" d="M108,-933.9454C108,-914.9149 108,-892.4797 108,-872.4269"/>
<polygon fill="#000000" stroke="#000000" points="111.5001,-872.1883 108,-862.1884 104.5001,-872.1884 111.5001,-872.1883"/>
</g>
<!-- src_other -->
<g id="node2" class="node">
<title>src_other</title>
<path fill="#f5f5f5" stroke="#000000" d="M506,-249.0009C506,-249.0009 314,-249.0009 314,-249.0009 308,-249.0009 302,-243.0009 302,-237.0009 302,-237.0009 302,-172.1991 302,-172.1991 302,-166.1991 308,-160.1991 314,-160.1991 314,-160.1991 506,-160.1991 506,-160.1991 512,-160.1991 518,-166.1991 518,-172.1991 518,-172.1991 518,-237.0009 518,-237.0009 518,-243.0009 512,-249.0009 506,-249.0009"/>
<text text-anchor="middle" x="410" y="-225.2" font-family="Helvetica,sans-Serif" font-size="14.00" fill="#000000">Pre&#45;screened articles</text>
<text text-anchor="middle" x="410" y="-208.4" font-family="Helvetica,sans-Serif" font-size="14.00" fill="#000000">from other sources</text>
<text text-anchor="middle" x="410" y="-175.6" font-family="Helvetica,sans-Serif" font-size="14.00" fill="#000000">(RO = 0, RCG = 1)</text>
</g>
<!-- node_included_map -->
<g id="node6" class="node">
<title>node_included_map</title>
<path fill="#ffffff" stroke="#000000" d="M204,-249.0009C204,-249.0009 12,-249.0009 12,-249.0009 6,-249.0009 0,-243.0009 0,-237.0009 0,-237.0009 0,-172.1991 0,-172.1991 0,-166.1991 6,-160.1991 12,-160.1991 12,-160.1991 204,-160.1991 204,-160.1991 210,-160.1991 216,-166.1991 216,-172.1991 216,-172.1991 216,-237.0009 216,-237.0009 216,-243.0009 210,-249.0009 204,-249.0009"/>
<text text-anchor="middle" x="108" y="-225.2" font-family="Helvetica,sans-Serif" font-size="14.00" fill="#000000">Studies included in the</text>
<text text-anchor="middle" x="108" y="-208.4" font-family="Helvetica,sans-Serif" font-size="14.00" fill="#000000">systematic map</text>
<text text-anchor="middle" x="108" y="-175.6" font-family="Helvetica,sans-Serif" font-size="14.00" fill="#000000">(RO = 27, RCG = 33)</text>
</g>
<!-- src_other&#45;&gt;node_included_map -->
<g id="edge2" class="edge">
<title>src_other:w&#45;&gt;node_included_map</title>
<path fill="none" stroke="#000000" d="M302,-204.6C302,-204.6 266.673,-204.6 226.1692,-204.6"/>
<polygon fill="#000000" stroke="#000000" points="226.0616,-201.1001 216.0616,-204.6 226.0615,-208.1001 226.0616,-201.1001"/>
</g>
<!-- node_after_duplicates -->
<g id="node4" class="node">
<title>node_after_duplicates</title>
<path fill="#ffffff" stroke="#000000" d="M204,-635.8009C204,-635.8009 12,-635.8009 12,-635.8009 6,-635.8009 0,-629.8009 0,-623.8009 0,-623.8009 0,-558.9991 0,-558.9991 0,-552.9991 6,-546.9991 12,-546.9991 12,-546.9991 204,-546.9991 204,-546.9991 210,-546.9991 216,-552.9991 216,-558.9991 216,-558.9991 216,-623.8009 216,-623.8009 216,-629.8009 210,-635.8009 204,-635.8009"/>
<text text-anchor="middle" x="108" y="-612" font-family="Helvetica,sans-Serif" font-size="14.00" fill="#000000">Records after</text>
<text text-anchor="middle" x="108" y="-595.2" font-family="Helvetica,sans-Serif" font-size="14.00" fill="#000000">title &amp; abstract screening</text>
<text text-anchor="middle" x="108" y="-562.4" font-family="Helvetica,sans-Serif" font-size="14.00" fill="#000000">(RO = 50, RCG = 77)</text>
</g>
<!-- node_initial&#45;&gt;node_after_duplicates -->
<g id="edge4" class="edge">
<title>node_initial&#45;&gt;node_after_duplicates</title>
<path fill="none" stroke="#000000" d="M108,-773.3408C108,-736.8129 108,-684.9163 108,-645.8911"/>
<polygon fill="#000000" stroke="#000000" points="111.5001,-645.7575 108,-635.7575 104.5001,-645.7576 111.5001,-645.7575"/>
</g>
<!-- reason_duplicates -->
<g id="node8" class="node">
<title>reason_duplicates</title>
<path fill="#d3d3d3" stroke="#000000" d="M506,-853.4011C506,-853.4011 314,-853.4011 314,-853.4011 308,-853.4011 302,-847.4011 302,-841.4011 302,-841.4011 302,-794.1989 302,-794.1989 302,-788.1989 308,-782.1989 314,-782.1989 314,-782.1989 506,-782.1989 506,-782.1989 512,-782.1989 518,-788.1989 518,-794.1989 518,-794.1989 518,-841.4011 518,-841.4011 518,-847.4011 512,-853.4011 506,-853.4011"/>
<text text-anchor="middle" x="410" y="-830" font-family="Helvetica,sans-Serif" font-size="14.00" fill="#000000">Duplicates removed</text>
<text text-anchor="middle" x="410" y="-797.2" font-family="Helvetica,sans-Serif" font-size="14.00" fill="#000000">(RO = 33, RCG = 15)</text>
</g>
<!-- node_initial&#45;&gt;reason_duplicates -->
<g id="edge8" class="edge">
<title>node_initial:e&#45;&gt;reason_duplicates:w</title>
<path fill="none" stroke="#000000" d="M216,-817.8C216,-817.8 269.0164,-817.8 291.797,-817.8"/>
<polygon fill="#000000" stroke="#000000" points="292,-821.3001 302,-817.8 292,-814.3001 292,-821.3001"/>
</g>
<!-- node_after_title_abstract -->
<g id="node5" class="node">
<title>node_after_title_abstract</title>
<path fill="#ffffff" stroke="#000000" d="M204,-409.4009C204,-409.4009 12,-409.4009 12,-409.4009 6,-409.4009 0,-403.4009 0,-397.4009 0,-397.4009 0,-332.5991 0,-332.5991 0,-326.5991 6,-320.5991 12,-320.5991 12,-320.5991 204,-320.5991 204,-320.5991 210,-320.5991 216,-326.5991 216,-332.5991 216,-332.5991 216,-397.4009 216,-397.4009 216,-403.4009 210,-409.4009 204,-409.4009"/>
<text text-anchor="middle" x="108" y="-385.6" font-family="Helvetica,sans-Serif" font-size="14.00" fill="#000000">Records after</text>
<text text-anchor="middle" x="108" y="-368.8" font-family="Helvetica,sans-Serif" font-size="14.00" fill="#000000">full text screening</text>
<text text-anchor="middle" x="108" y="-336" font-family="Helvetica,sans-Serif" font-size="14.00" fill="#000000">(RO = 27, RCG = 32)</text>
</g>
<!-- node_after_duplicates&#45;&gt;node_after_title_abstract -->
<g id="edge5" class="edge">
<title>node_after_duplicates&#45;&gt;node_after_title_abstract</title>
<path fill="none" stroke="#000000" d="M108,-546.9408C108,-510.4129 108,-458.5163 108,-419.4911"/>
<polygon fill="#000000" stroke="#000000" points="111.5001,-419.3575 108,-409.3575 104.5001,-419.3576 111.5001,-419.3575"/>
</g>
<!-- reason_title_abstract -->
<g id="node9" class="node">
<title>reason_title_abstract</title>
<path fill="#d3d3d3" stroke="#000000" d="M506,-701.8004C506,-701.8004 314,-701.8004 314,-701.8004 308,-701.8004 302,-695.8004 302,-689.8004 302,-689.8004 302,-492.9996 302,-492.9996 302,-486.9996 308,-480.9996 314,-480.9996 314,-480.9996 506,-480.9996 506,-480.9996 512,-480.9996 518,-486.9996 518,-492.9996 518,-492.9996 518,-689.8004 518,-689.8004 518,-695.8004 512,-701.8004 506,-701.8004"/>
<text text-anchor="middle" x="410" y="-678" font-family="Helvetica,sans-Serif" font-size="14.00" fill="#000000">Excluded titles &amp; abstracts</text>
<text text-anchor="middle" x="410" y="-645.2" font-family="Helvetica,sans-Serif" font-size="14.00" fill="#000000">(RO = 319, RCG = 382)</text>
<text text-anchor="middle" x="410" y="-612.4" font-family="Helvetica,sans-Serif" font-size="14.00" fill="#000000">&#45; Not accessible</text>
<text text-anchor="middle" x="410" y="-595.6" font-family="Helvetica,sans-Serif" font-size="14.00" fill="#000000">(RO = 16, RCG = 12)</text>
<text text-anchor="middle" x="410" y="-562.8" font-family="Helvetica,sans-Serif" font-size="14.00" fill="#000000">&#45; Not found</text>
<text text-anchor="middle" x="410" y="-546" font-family="Helvetica,sans-Serif" font-size="14.00" fill="#000000">(RO = 24, RCG = 10)</text>
<text text-anchor="middle" x="410" y="-513.2" font-family="Helvetica,sans-Serif" font-size="14.00" fill="#000000">&#45; Not in English</text>
<text text-anchor="middle" x="410" y="-496.4" font-family="Helvetica,sans-Serif" font-size="14.00" fill="#000000">(RO = 4, RCG = 0)</text>
</g>
<!-- node_after_duplicates&#45;&gt;reason_title_abstract -->
<g id="edge9" class="edge">
<title>node_after_duplicates:e&#45;&gt;reason_title_abstract:w</title>
<path fill="none" stroke="#000000" d="M216,-591.4C216,-591.4 269.0164,-591.4 291.797,-591.4"/>
<polygon fill="#000000" stroke="#000000" points="292,-594.9001 302,-591.4 292,-587.9001 292,-594.9001"/>
</g>
<!-- node_after_title_abstract&#45;&gt;node_included_map -->
<g id="edge6" class="edge">
<title>node_after_title_abstract&#45;&gt;node_included_map</title>
<path fill="none" stroke="#000000" d="M108,-320.7454C108,-301.7149 108,-279.2797 108,-259.2269"/>
<polygon fill="#000000" stroke="#000000" points="111.5001,-258.9883 108,-248.9884 104.5001,-258.9884 111.5001,-258.9883"/>
</g>
<!-- reason_full_text -->
<g id="node10" class="node">
<title>reason_full_text</title>
<path fill="#d3d3d3" stroke="#000000" d="M506,-400.6011C506,-400.6011 314,-400.6011 314,-400.6011 308,-400.6011 302,-394.6011 302,-388.6011 302,-388.6011 302,-341.3989 302,-341.3989 302,-335.3989 308,-329.3989 314,-329.3989 314,-329.3989 506,-329.3989 506,-329.3989 512,-329.3989 518,-335.3989 518,-341.3989 518,-341.3989 518,-388.6011 518,-388.6011 518,-394.6011 512,-400.6011 506,-400.6011"/>
<text text-anchor="middle" x="410" y="-377.2" font-family="Helvetica,sans-Serif" font-size="14.00" fill="#000000">Excluded full text</text>
<text text-anchor="middle" x="410" y="-344.4" font-family="Helvetica,sans-Serif" font-size="14.00" fill="#000000">(RO = 23, RCG = 45)</text>
</g>
<!-- node_after_title_abstract&#45;&gt;reason_full_text -->
<g id="edge10" class="edge">
<title>node_after_title_abstract:e&#45;&gt;reason_full_text:w</title>
<path fill="none" stroke="#000000" d="M216,-365C216,-365 269.0164,-365 291.797,-365"/>
<polygon fill="#000000" stroke="#000000" points="292,-368.5001 302,-365 292,-361.5001 292,-368.5001"/>
</g>
<!-- node_included_map&#45;&gt;src_other -->
<!-- node_included_reproducibility -->
<g id="node7" class="node">
<title>node_included_reproducibility</title>
<path fill="#000000" stroke="#000000" d="M204,-88.6009C204,-88.6009 12,-88.6009 12,-88.6009 6,-88.6009 0,-82.6009 0,-76.6009 0,-76.6009 0,-11.7991 0,-11.7991 0,-5.7991 6,.2009 12,.2009 12,.2009 204,.2009 204,.2009 210,.2009 216,-5.7991 216,-11.7991 216,-11.7991 216,-76.6009 216,-76.6009 216,-82.6009 210,-88.6009 204,-88.6009"/>
<text text-anchor="middle" x="108" y="-64.8" font-family="Helvetica,sans-Serif" font-size="14.00" fill="#ffffff">Studies included in the</text>
<text text-anchor="middle" x="108" y="-48" font-family="Helvetica,sans-Serif" font-size="14.00" fill="#ffffff">reproducibility assessment</text>
<text text-anchor="middle" x="108" y="-15.2" font-family="Helvetica,sans-Serif" font-size="14.00" fill="#ffffff">(n = 49)</text>
</g>
<!-- node_included_map&#45;&gt;node_included_reproducibility -->
<g id="edge7" class="edge">
<title>node_included_map&#45;&gt;node_included_reproducibility</title>
<path fill="none" stroke="#000000" d="M108,-160.3454C108,-141.3149 108,-118.8797 108,-98.8269"/>
<polygon fill="#000000" stroke="#000000" points="111.5001,-98.5883 108,-88.5884 104.5001,-98.5884 111.5001,-98.5883"/>
</g>
<!-- reason_merged_pre2000 -->
<g id="node11" class="node">
<title>reason_merged_pre2000</title>
<path fill="#d3d3d3" stroke="#000000" d="M506,-88.6009C506,-88.6009 314,-88.6009 314,-88.6009 308,-88.6009 302,-82.6009 302,-76.6009 302,-76.6009 302,-11.7991 302,-11.7991 302,-5.7991 308,.2009 314,.2009 314,.2009 506,.2009 506,.2009 512,.2009 518,-5.7991 518,-11.7991 518,-11.7991 518,-76.6009 518,-76.6009 518,-82.6009 512,-88.6009 506,-88.6009"/>
<text text-anchor="middle" x="410" y="-64.8" font-family="Helvetica,sans-Serif" font-size="14.00" fill="#000000">Excluded after merging lists</text>
<text text-anchor="middle" x="410" y="-48" font-family="Helvetica,sans-Serif" font-size="14.00" fill="#000000">and removing pre&#45;2000 records</text>
<text text-anchor="middle" x="410" y="-15.2" font-family="Helvetica,sans-Serif" font-size="14.00" fill="#000000">(n = 11)</text>
</g>
<!-- node_included_reproducibility&#45;&gt;reason_merged_pre2000 -->
<g id="edge11" class="edge">
<title>node_included_reproducibility:e&#45;&gt;reason_merged_pre2000:w</title>
<path fill="none" stroke="#000000" d="M216,-44.2C216,-44.2 269.0164,-44.2 291.797,-44.2"/>
<polygon fill="#000000" stroke="#000000" points="292,-47.7001 302,-44.2 292,-40.7001 292,-47.7001"/>
</g>
<!-- inv_dup -->
<!-- inv_title_abstract -->
<!-- inv_full_text -->
<!-- inv_merged_pre2000 -->
<!-- inv_other_sources -->
</g>
</svg>

